<svg width="48" height="48" viewBox="0 0 48 48" fill="none" xmlns="http://www.w3.org/2000/svg">
<path d="M39.0604 12.82C39.6384 13.3665 39.9757 14.1201 39.9982 14.9152C40.0207 15.7103 39.7265 16.4818 39.1804 17.06L22.1804 35.06C21.9048 35.3512 21.5737 35.5843 21.2066 35.7454C20.8395 35.9064 20.4439 35.9923 20.043 35.9979C19.6422 36.0035 19.2443 35.9287 18.8728 35.7779C18.5014 35.6271 18.1639 35.4034 17.8804 35.12L8.88036 26.12C8.35044 25.5513 8.06195 24.7992 8.07566 24.0219C8.08938 23.2447 8.40422 22.5032 8.95388 21.9535C9.50353 21.4039 10.2451 21.089 11.0223 21.0753C11.7995 21.0616 12.5517 21.3501 13.1204 21.88L19.9404 28.696L34.8204 12.94C35.3668 12.362 36.1204 12.0247 36.9155 12.0022C37.7106 11.9797 38.4821 12.2739 39.0604 12.82Z" fill="white"/>
</svg>
