<svg width="32" height="32" viewBox="0 0 32 32" fill="none" xmlns="http://www.w3.org/2000/svg">
<path d="M21.9107 15.2441L21.9107 15.2441L21.9125 15.2422C22.0613 15.0882 22.1436 14.8819 22.1417 14.6677C22.1399 14.4536 22.054 14.2488 21.9026 14.0974C21.7511 13.946 21.5463 13.8601 21.3322 13.8582C21.1181 13.8563 20.9118 13.9387 20.7577 14.0874L20.7577 14.0874L20.7559 14.0893L15.9999 18.8452L13.9107 16.7559L13.9107 16.7559L13.9088 16.7541C13.7548 16.6053 13.5485 16.523 13.3344 16.5249C13.1202 16.5267 12.9154 16.6126 12.764 16.764C12.6126 16.9155 12.5267 17.1203 12.5248 17.3344C12.523 17.5485 12.6053 17.7548 12.7541 17.9089L12.754 17.9089L12.7559 17.9107L15.8939 21.0487L15.9999 21.1548L16.106 21.0487L21.9107 15.2441Z" fill="black" stroke="black" stroke-width="0.3"/>
<path d="M25.483 10V9.93791L25.4391 9.89397L18.7724 3.22731L18.7285 3.18337H18.6663H11.333C10.7628 3.18337 10.2159 3.40989 9.81273 3.81309C9.40952 4.2163 9.18301 4.76316 9.18301 5.33337V24C9.18301 24.5703 9.40952 25.1171 9.81273 25.5203C10.2159 25.9235 10.7628 26.15 11.333 26.15H23.333C23.9032 26.15 24.4501 25.9235 24.8533 25.5203C25.2565 25.1171 25.483 24.5703 25.483 24V10ZM18.0889 10.5775C18.242 10.7307 18.4497 10.8167 18.6663 10.8167H23.8497V24C23.8497 24.1371 23.7952 24.2685 23.6983 24.3654C23.6015 24.4623 23.47 24.5167 23.333 24.5167H11.333C11.196 24.5167 11.0646 24.4623 10.9677 24.3654C10.8708 24.2685 10.8163 24.1371 10.8163 24V5.33337C10.8163 5.19635 10.8708 5.06493 10.9677 4.96804C11.0646 4.87114 11.196 4.81671 11.333 4.81671H17.8497V10C17.8497 10.2166 17.9357 10.4244 18.0889 10.5775ZM19.483 9.18337V6.24751L22.4189 9.18337H19.483Z" fill="black" stroke="black" stroke-width="0.3"/>
<path d="M8.14984 7.33337V7.18337H7.99984H6.6665H6.5165V7.33337V25.3334C6.5165 26.2572 6.8835 27.1432 7.53675 27.7965C8.19 28.4497 9.076 28.8167 9.99984 28.8167H22.6665H22.8165V28.6667V27.3334V27.1834H22.6665H9.99984C9.50919 27.1834 9.03863 26.9885 8.69169 26.6415C8.34475 26.2946 8.14984 25.824 8.14984 25.3334V7.33337Z" fill="black" stroke="black" stroke-width="0.3"/>
</svg>
