<svg width="32" height="32" viewBox="0 0 32 32" fill="none" xmlns="http://www.w3.org/2000/svg">
<path d="M14.6667 26.6667C14.6667 27.0203 14.8071 27.3594 15.0572 27.6095C15.3072 27.8595 15.6464 28 16 28C16.3536 28 16.6928 27.8595 16.9428 27.6095C17.1929 27.3594 17.3333 27.0203 17.3333 26.6667V17.3333H26.6667C27.0203 17.3333 27.3594 17.1929 27.6095 16.9428C27.8595 16.6928 28 16.3536 28 16C28 15.6464 27.8595 15.3072 27.6095 15.0572C27.3594 14.8071 27.0203 14.6667 26.6667 14.6667H17.3333V5.33333C17.3333 4.97971 17.1929 4.64057 16.9428 4.39052C16.6928 4.14048 16.3536 4 16 4C15.6464 4 15.3072 4.14048 15.0572 4.39052C14.8071 4.64057 14.6667 4.97971 14.6667 5.33333V14.6667H5.33333C4.97971 14.6667 4.64057 14.8071 4.39052 15.0572C4.14048 15.3072 4 15.6464 4 16C4 16.3536 4.14048 16.6928 4.39052 16.9428C4.64057 17.1929 4.97971 17.3333 5.33333 17.3333H14.6667V26.6667Z" fill="white"/>
</svg>
