<svg width="32" height="32" viewBox="0 0 32 32" fill="none" xmlns="http://www.w3.org/2000/svg">
<path d="M20 26.6667C15.7333 26.6667 14.6667 23.1107 14.6667 21.3334H4V24C4 24.7073 4.28095 25.3856 4.78105 25.8857C5.28115 26.3858 5.95942 26.6667 6.66667 26.6667H20ZM20 26.6667C21.0609 26.6667 22.0783 26.2453 22.8284 25.4951C23.5786 24.745 24 23.7276 24 22.6667V13.3334M24 13.3334H25.3333C26.0406 13.3334 26.7189 13.0524 27.219 12.5523C27.719 12.0522 28 11.374 28 10.6667V8.00004C28 7.2928 27.719 6.61452 27.219 6.11442C26.7189 5.61433 26.0406 5.33337 25.3333 5.33337H24M24 13.3334V5.33337M24 5.33337H9.33333C8.62609 5.33337 7.94781 5.61433 7.44772 6.11442C6.94762 6.61452 6.66667 7.2928 6.66667 8.00004V21.3334M18.6667 10.6667H12M14.6667 16H12" stroke="#45A92A" stroke-width="2.5" stroke-linecap="round" stroke-linejoin="round"/>
</svg>
