<svg width="245" height="46" viewBox="0 0 245 46" fill="none" xmlns="http://www.w3.org/2000/svg">
<g clip-path="url(#clip0_301_5)">
<path d="M3.841 38.736C3.749 38.0153 3.64167 36.9803 3.519 35.631C3.41167 34.2663 3.28133 32.71 3.128 30.962C2.97467 29.1987 2.82133 27.3587 2.668 25.442C2.51467 23.51 2.36133 21.601 2.208 19.715C2.05467 17.829 1.91667 16.0887 1.794 14.494C1.68667 12.884 1.587 11.5193 1.495 10.4C1.41833 9.26533 1.36467 8.50633 1.334 8.123C1.96267 8.04633 2.76767 7.962 3.749 7.87C4.73033 7.778 5.78067 7.70133 6.9 7.64C8.01933 7.56333 9.06967 7.525 10.051 7.525C12.8723 7.525 15.2643 7.83933 17.227 8.468C19.1897 9.08133 20.769 10.0397 21.965 11.343C23.161 12.631 24.0273 14.2717 24.564 16.265C25.1007 18.2583 25.369 20.612 25.369 23.326C25.369 26.4693 24.9473 29.0453 24.104 31.054C23.276 33.0473 21.9803 34.6037 20.217 35.723C18.469 36.827 16.238 37.5937 13.524 38.023C10.8253 38.4677 7.59767 38.7053 3.841 38.736ZM10.718 31.123C12.5427 31.0617 13.9763 30.7473 15.019 30.18C16.077 29.6127 16.8207 28.8 17.25 27.742C17.6947 26.6687 17.917 25.3653 17.917 23.832C17.917 22.1147 17.7023 20.497 17.273 18.979C16.859 17.461 16.1613 16.2343 15.18 15.299C14.214 14.3637 12.8953 13.896 11.224 13.896C10.948 13.896 10.649 13.896 10.327 13.896C10.0203 13.896 9.74433 13.9113 9.499 13.942C9.62167 15.6133 9.74433 17.461 9.867 19.485C10.005 21.4937 10.1507 23.51 10.304 25.534C10.4573 27.5427 10.5953 29.4057 10.718 31.123ZM37.4041 37.954C37.1434 37.9693 36.6451 38 35.9091 38.046C35.1884 38.1073 34.4218 38.138 33.6091 38.138C33.0111 38.138 32.4054 38.115 31.7921 38.069C31.1941 38.0383 30.6038 37.9923 30.0211 37.931C30.0978 37.5323 30.1821 36.7197 30.2741 35.493C30.3814 34.251 30.4811 32.7943 30.5731 31.123C30.6804 29.4517 30.7801 27.7267 30.8721 25.948C30.9794 24.154 31.0561 22.475 31.1021 20.911C31.1634 19.347 31.1941 18.0897 31.1941 17.139C31.5008 17.1237 31.9531 17.1007 32.5511 17.07C33.1491 17.0393 33.7931 17.0163 34.4831 17.001C35.1731 16.9703 35.8324 16.9473 36.4611 16.932C37.0898 16.9013 37.5881 16.886 37.9561 16.886C38.0328 17.3613 38.0941 18.128 38.1401 19.186C38.1861 20.244 38.2091 21.4247 38.2091 22.728C38.2091 24.1233 38.1861 25.603 38.1401 27.167C38.1094 28.731 38.0558 30.249 37.9791 31.721C37.9178 33.1777 37.8334 34.4657 37.7261 35.585C37.6188 36.689 37.5114 37.4787 37.4041 37.954ZM34.8281 13.919C33.4481 13.919 32.2904 13.5203 31.3551 12.723C30.4198 11.9103 29.9521 10.8447 29.9521 9.526C29.9521 8.62133 30.1744 7.847 30.6191 7.203C31.0638 6.559 31.6388 6.06833 32.3441 5.731C33.0648 5.37833 33.8238 5.202 34.6211 5.202C35.8938 5.202 36.9441 5.616 37.7721 6.444C38.6154 7.272 39.0371 8.33767 39.0371 9.641C39.0371 10.8523 38.6384 11.872 37.8411 12.7C37.0438 13.5127 36.0394 13.919 34.8281 13.919ZM66.1958 33.883C65.7665 34.4043 65.2298 34.918 64.5858 35.424C63.9418 35.93 63.1675 36.39 62.2628 36.804C61.3735 37.2027 60.3538 37.5247 59.2038 37.77C58.0538 38 56.7658 38.115 55.3398 38.115C53.0245 38.115 50.9698 37.678 49.1758 36.804C47.3818 35.9147 45.9788 34.6037 44.9668 32.871C43.9701 31.123 43.4718 28.9533 43.4718 26.362C43.4718 23.7707 43.9931 21.5167 45.0358 19.6C46.0785 17.668 47.5351 16.173 49.4058 15.115C51.2765 14.0417 53.4615 13.505 55.9608 13.505C59.1195 13.505 61.6035 14.3867 63.4128 16.15C65.2375 17.898 66.1881 20.3207 66.2648 23.418C66.2801 23.9853 66.2725 24.499 66.2418 24.959C66.2111 25.419 66.1498 25.9097 66.0578 26.431C65.8278 26.4157 65.3371 26.4003 64.5858 26.385C63.8345 26.3697 62.9835 26.3543 62.0328 26.339C61.0975 26.3083 60.2081 26.2853 59.3648 26.27C58.5368 26.2547 57.9235 26.247 57.5248 26.247C56.1908 26.247 54.8951 26.3083 53.6378 26.431C52.3958 26.5537 51.3531 26.684 50.5098 26.822C50.5098 27.098 50.5251 27.374 50.5558 27.65C50.6018 27.9107 50.6631 28.1637 50.7398 28.409C50.9391 29.0377 51.2841 29.5743 51.7748 30.019C52.2808 30.4637 52.8788 30.8087 53.5688 31.054C54.2741 31.284 55.0178 31.399 55.7998 31.399C56.5051 31.399 57.1491 31.3147 57.7318 31.146C58.3298 30.962 58.8741 30.7243 59.3648 30.433C59.8555 30.1417 60.3001 29.8273 60.6988 29.49C61.1128 29.1373 61.4961 28.7923 61.8488 28.455C61.9408 28.5317 62.1785 28.7617 62.5618 29.145C62.9451 29.513 63.3745 29.973 63.8498 30.525C64.3251 31.0617 64.7775 31.629 65.2068 32.227C65.6361 32.825 65.9658 33.377 66.1958 33.883ZM50.7628 22.521C51.4528 22.4137 52.3038 22.314 53.3158 22.222C54.3278 22.13 55.5008 22.084 56.8348 22.084C57.5555 22.084 58.1918 22.0917 58.7438 22.107C59.3111 22.1223 59.7098 22.1377 59.9398 22.153C59.9398 21.831 59.8938 21.4783 59.8018 21.095C59.6791 20.5737 59.4338 20.0753 59.0658 19.6C58.7131 19.1247 58.2531 18.7413 57.6858 18.45C57.1338 18.1587 56.4668 18.013 55.6848 18.013C54.7035 18.013 53.8448 18.2277 53.1088 18.657C52.3881 19.0863 51.8285 19.646 51.4298 20.336C51.0311 21.026 50.8088 21.7543 50.7628 22.521ZM88.7642 34.987C88.4729 35.5543 88.0129 36.16 87.3842 36.804C86.7709 37.4327 85.9659 37.9693 84.9692 38.414C83.9879 38.874 82.7919 39.104 81.3812 39.104C79.5259 39.104 78.0079 38.713 76.8272 37.931C75.6619 37.149 74.7955 36.1063 74.2282 34.803C73.6762 33.4997 73.4002 32.0737 73.4002 30.525C73.4002 29.6817 73.4079 28.7847 73.4232 27.834C73.4539 26.868 73.4845 25.9173 73.5152 24.982C73.5459 24.0313 73.5765 23.1343 73.6072 22.291C73.6532 21.4323 73.6915 20.681 73.7222 20.037C73.7682 19.393 73.7989 18.8947 73.8142 18.542C72.6029 18.6647 71.4835 18.8027 70.4562 18.956C69.4289 19.094 68.7159 19.209 68.3172 19.301C68.1639 18.4423 68.0489 17.5683 67.9722 16.679C67.8955 15.7897 67.8342 15.0153 67.7882 14.356C67.7575 13.6967 67.7422 13.2903 67.7422 13.137C68.6315 13.0143 69.5822 12.907 70.5942 12.815C71.6062 12.7077 72.6719 12.631 73.7912 12.585C73.7759 12.217 73.7605 11.642 73.7452 10.86C73.7299 10.078 73.7069 9.37267 73.6762 8.744C73.6609 8.17667 73.6302 7.60933 73.5842 7.042C73.5382 6.45933 73.4999 5.99167 73.4692 5.639L80.2772 5.041C80.2772 5.225 80.2772 5.65433 80.2772 6.329C80.2925 7.00366 80.3002 7.81633 80.3002 8.767C80.3002 9.24233 80.3079 9.79433 80.3232 10.423C80.3385 11.0363 80.3539 11.642 80.3692 12.24C80.8752 12.2093 81.4655 12.1787 82.1402 12.148C82.8149 12.1173 83.3515 12.0943 83.7502 12.079C84.3942 12.0483 84.9769 12.033 85.4982 12.033C86.0195 12.0177 86.4489 12.01 86.7862 12.01C87.1389 12.01 87.3765 12.0177 87.4992 12.033C87.5912 12.7537 87.6525 13.6737 87.6832 14.793C87.7139 15.897 87.7292 16.8783 87.7292 17.737C87.5759 17.7217 87.0775 17.7293 86.2342 17.76C85.3909 17.7753 84.5629 17.806 83.7502 17.852C83.1829 17.8673 82.5542 17.898 81.8642 17.944C81.1742 17.99 80.6299 18.036 80.2312 18.082C80.2159 18.404 80.1929 18.8487 80.1622 19.416C80.1469 19.968 80.1239 20.5967 80.0932 21.302C80.0779 21.992 80.0549 22.7127 80.0242 23.464C80.0089 24.2 79.9935 24.913 79.9782 25.603C79.9629 26.293 79.9552 26.9063 79.9552 27.443C79.9552 28.455 80.0012 29.3673 80.0932 30.18C80.2005 30.9773 80.4229 31.6137 80.7602 32.089C81.1129 32.549 81.6495 32.779 82.3702 32.779C82.8455 32.779 83.2519 32.641 83.5892 32.365C83.9265 32.089 84.2025 31.767 84.4172 31.399C84.6472 31.0157 84.8465 30.6783 85.0152 30.387C85.2145 30.663 85.4905 31.031 85.8432 31.491C86.2112 31.9357 86.5945 32.4033 86.9932 32.894C87.4072 33.3847 87.7752 33.8217 88.0972 34.205C88.4345 34.5883 88.6569 34.849 88.7642 34.987ZM107.925 38.736C107.833 38.0153 107.726 36.9803 107.603 35.631C107.496 34.2663 107.365 32.71 107.212 30.962C107.059 29.1987 106.905 27.3587 106.752 25.442C106.599 23.51 106.445 21.601 106.292 19.715C106.139 17.829 106.001 16.0887 105.878 14.494C105.771 12.884 105.671 11.5193 105.579 10.4C105.502 9.26533 105.449 8.50633 105.418 8.123C106.047 8.04633 106.852 7.962 107.833 7.87C108.814 7.778 109.865 7.70133 110.984 7.64C112.103 7.56333 113.154 7.525 114.135 7.525C116.956 7.525 119.348 7.83933 121.311 8.468C123.274 9.08133 124.853 10.0397 126.049 11.343C127.245 12.631 128.111 14.2717 128.648 16.265C129.185 18.2583 129.453 20.612 129.453 23.326C129.453 26.4693 129.031 29.0453 128.188 31.054C127.36 33.0473 126.064 34.6037 124.301 35.723C122.553 36.827 120.322 37.5937 117.608 38.023C114.909 38.4677 111.682 38.7053 107.925 38.736ZM114.802 31.123C116.627 31.0617 118.06 30.7473 119.103 30.18C120.161 29.6127 120.905 28.8 121.334 27.742C121.779 26.6687 122.001 25.3653 122.001 23.832C122.001 22.1147 121.786 20.497 121.357 18.979C120.943 17.461 120.245 16.2343 119.264 15.299C118.298 14.3637 116.979 13.896 115.308 13.896C115.032 13.896 114.733 13.896 114.411 13.896C114.104 13.896 113.828 13.9113 113.583 13.942C113.706 15.6133 113.828 17.461 113.951 19.485C114.089 21.4937 114.235 23.51 114.388 25.534C114.541 27.5427 114.679 29.4057 114.802 31.123ZM141.488 37.954C141.227 37.9693 140.729 38 139.993 38.046C139.272 38.1073 138.506 38.138 137.693 38.138C137.095 38.138 136.489 38.115 135.876 38.069C135.278 38.0383 134.688 37.9923 134.105 37.931C134.182 37.5323 134.266 36.7197 134.358 35.493C134.465 34.251 134.565 32.7943 134.657 31.123C134.764 29.4517 134.864 27.7267 134.956 25.948C135.063 24.154 135.14 22.475 135.186 20.911C135.247 19.347 135.278 18.0897 135.278 17.139C135.585 17.1237 136.037 17.1007 136.635 17.07C137.233 17.0393 137.877 17.0163 138.567 17.001C139.257 16.9703 139.916 16.9473 140.545 16.932C141.174 16.9013 141.672 16.886 142.04 16.886C142.117 17.3613 142.178 18.128 142.224 19.186C142.27 20.244 142.293 21.4247 142.293 22.728C142.293 24.1233 142.27 25.603 142.224 27.167C142.193 28.731 142.14 30.249 142.063 31.721C142.002 33.1777 141.917 34.4657 141.81 35.585C141.703 36.689 141.595 37.4787 141.488 37.954ZM138.912 13.919C137.532 13.919 136.374 13.5203 135.439 12.723C134.504 11.9103 134.036 10.8447 134.036 9.526C134.036 8.62133 134.258 7.847 134.703 7.203C135.148 6.559 135.723 6.06833 136.428 5.731C137.149 5.37833 137.908 5.202 138.705 5.202C139.978 5.202 141.028 5.616 141.856 6.444C142.699 7.272 143.121 8.33767 143.121 9.641C143.121 10.8523 142.722 11.872 141.925 12.7C141.128 13.5127 140.123 13.919 138.912 13.919ZM155.537 38.299C155.077 38.3143 154.509 38.3143 153.835 38.299C153.16 38.299 152.47 38.2913 151.765 38.276C151.197 38.2607 150.546 38.2377 149.81 38.207C149.074 38.1763 148.56 38.1457 148.269 38.115C148.407 36.827 148.522 35.3703 148.614 33.745C148.721 32.1197 148.805 30.318 148.867 28.34C148.928 26.362 148.974 24.2 149.005 21.854C149.035 19.508 149.051 16.9703 149.051 14.241C149.633 14.1643 150.323 14.103 151.121 14.057C151.918 14.011 152.723 13.988 153.536 13.988C154.103 13.988 154.647 14.0033 155.169 14.034C155.705 14.0493 156.181 14.0953 156.595 14.172C156.595 14.31 156.595 14.5937 156.595 15.023C156.61 15.437 156.61 15.897 156.595 16.403C156.595 16.8937 156.587 17.3383 156.572 17.737C156.97 17.1543 157.622 16.5487 158.527 15.92C159.431 15.276 160.482 14.7317 161.678 14.287C162.874 13.8423 164.108 13.62 165.381 13.62C167.727 13.62 169.521 14.0953 170.763 15.046C172.005 15.9813 172.856 17.392 173.316 19.278C173.776 21.1487 174.006 23.4947 174.006 26.316C174.006 27.2973 173.975 28.4473 173.914 29.766C173.868 31.0693 173.791 32.4417 173.684 33.883C173.576 35.3243 173.438 36.7197 173.27 38.069C172.963 38.0997 172.472 38.1227 171.798 38.138C171.138 38.1687 170.441 38.184 169.705 38.184C168.923 38.184 168.179 38.1687 167.474 38.138C166.768 38.1227 166.247 38.0997 165.91 38.069C166.078 37.2103 166.262 36.137 166.462 34.849C166.661 33.561 166.83 32.1887 166.968 30.732C167.106 29.26 167.175 27.857 167.175 26.523C167.175 25.235 167.067 24.1157 166.853 23.165C166.653 22.2143 166.262 21.4783 165.68 20.957C165.112 20.4203 164.269 20.152 163.15 20.152C162.23 20.152 161.348 20.313 160.505 20.635C159.661 20.957 158.895 21.3557 158.205 21.831C157.515 22.291 156.924 22.7433 156.434 23.188C156.418 25.6107 156.357 27.8033 156.25 29.766C156.142 31.7133 156.027 33.4077 155.905 34.849C155.782 36.275 155.659 37.425 155.537 38.299ZM191.152 38.506C187.088 38.506 184.029 37.4327 181.975 35.286C179.92 33.124 178.893 29.9883 178.893 25.879C178.893 23.1343 179.422 20.8573 180.48 19.048C181.538 17.2233 183.002 15.851 184.873 14.931C186.759 14.011 188.936 13.551 191.405 13.551C193.919 13.551 196.005 14.126 197.661 15.276C199.332 16.426 200.582 18.013 201.41 20.037C202.238 22.061 202.652 24.3993 202.652 27.052C202.652 29.3673 202.207 31.3837 201.318 33.101C200.428 34.8183 199.125 36.1523 197.408 37.103C195.706 38.0383 193.62 38.506 191.152 38.506ZM190.899 31.905C191.742 31.905 192.486 31.7593 193.13 31.468C193.789 31.1767 194.341 30.7627 194.786 30.226C195.246 29.674 195.591 29.03 195.821 28.294C196.051 27.558 196.166 26.753 196.166 25.879C196.166 24.5143 195.966 23.3107 195.568 22.268C195.184 21.21 194.609 20.3897 193.843 19.807C193.091 19.209 192.156 18.91 191.037 18.91C189.825 18.91 188.836 19.2167 188.07 19.83C187.303 20.4433 186.736 21.2483 186.368 22.245C186.015 23.2263 185.839 24.2767 185.839 25.396C185.839 27.282 186.268 28.8383 187.127 30.065C188.001 31.2917 189.258 31.905 190.899 31.905Z" fill="#378722"/>
<path d="M244.992 31.7112C244.705 31.1299 233.32 36.6519 230.594 29.7738C227.484 21.8784 227.389 8.12222 226.528 5.74882C225.667 3.37542 224.519 -1.6137 215.574 0.517369C207.011 2.55161 204.189 4.97342 205.194 7.83123C205.241 8.12198 205.241 8.36406 205.289 8.60639C205.481 9.33288 205.815 9.52679 206.055 9.04238C206.294 8.50955 206.677 8.6548 206.964 9.33288C207.251 10.011 207.537 9.91413 207.681 9.0908C207.824 8.26747 208.255 8.26723 208.638 9.13922C209.02 9.96255 209.499 9.91413 209.69 9.04238C209.881 8.17063 210.36 7.97672 210.742 8.6548C211.125 9.33288 211.747 9.28447 212.129 8.55797C212.225 8.36406 212.321 8.26723 212.417 8.17039H212.991C213.038 8.26723 213.086 8.36406 213.134 8.55797C213.326 9.28447 213.708 9.3813 214.043 8.80006C214.139 8.6548 214.139 8.41248 214.043 8.17039L217.583 8.12198L214.091 9.8173C213.517 9.42972 213.086 9.47813 213.086 9.96255C213.086 10.5438 212.656 10.5438 212.13 10.011C211.604 9.47813 211.364 9.72046 211.556 10.5438C211.589 10.703 211.605 10.8654 211.604 11.0282L211.221 11.2219C211.077 11.1735 210.886 11.0766 210.695 10.883C210.025 10.2533 209.594 10.4954 209.738 11.3671C209.786 11.6094 209.786 11.7547 209.786 11.9486L209.116 12.2875C209.068 12.2391 208.973 12.2391 208.925 12.1423C208.303 11.6581 207.729 11.8515 207.681 12.5783C207.633 12.8204 207.585 12.9656 207.49 13.0624L207.155 13.2079C207.011 13.2079 206.868 13.1111 206.724 12.9658C206.294 12.4814 205.863 12.7719 205.815 13.5469C205.768 13.9831 206.15 14.322 206.724 14.4188C207.107 14.6609 207.777 14.8064 208.829 14.8064C211.316 14.7093 213.565 13.7408 214.808 14.7093C215.239 15.0485 215.478 18.3907 215.478 22.6531C215.43 22.7015 215.334 22.7986 215.287 22.8952C214.474 23.7188 213.326 23.5251 212.369 23.8156C211.938 23.9611 211.46 24.1063 210.982 24.3484C210.599 24.5423 210.073 24.6876 209.882 25.0752C209.738 25.3657 209.738 25.8501 209.834 26.1406C209.881 26.2861 210.121 26.7218 210.264 26.625C210.408 26.5766 210.408 26.1892 210.456 26.0437C210.742 25.9953 210.695 26.5282 210.886 25.9469C210.982 25.6564 210.934 25.5109 211.269 25.4141C211.843 25.2204 212.56 25.4141 213.134 25.4625C213.469 25.5109 213.804 25.5109 214.091 25.5109C214.282 25.5109 214.617 25.4625 214.713 25.608C215 25.9953 214.139 26.3829 213.947 26.5766C213.517 26.9642 213.182 27.4486 212.847 27.8846C212.656 28.1751 212.321 28.5626 212.321 28.95C212.321 29.1921 212.608 29.7735 212.752 29.9188C212.991 30.1125 213.134 30.2095 213.23 29.9672C213.278 29.822 213.182 29.822 213.278 29.6767C213.278 29.6283 213.517 29.6767 213.565 29.6767C213.66 29.386 213.278 29.1923 213.326 28.9016C213.421 28.5142 213.995 28.2719 214.282 28.1266C214.474 28.0298 215.048 27.7391 215.239 27.8846C215.287 27.8846 215.287 27.933 215.334 27.9814C215.191 34.7143 214.665 41.5921 213.804 42.2704C212.178 43.5782 211.269 43.8203 211.986 44.5954L215.143 44.4986C215.143 44.4986 214.856 38.6861 219.018 38.2986C223.227 38.0078 222.127 44.2563 222.127 44.2563C222.127 44.2563 219.066 44.9828 219.974 46L223.705 45.8547C223.705 45.8547 222.701 37.8141 231.072 37.2811C238.056 36.7969 245.279 32.244 244.992 31.7112ZM217.87 3.90825C217.583 3.90825 217.296 3.66616 217.296 3.37542C217.296 3.08468 217.535 2.79417 217.822 2.79417C218.109 2.79417 218.396 3.03626 218.396 3.327C218.444 3.6175 218.204 3.90825 217.87 3.90825Z" fill="#378722"/>
</g>
<defs>
<clipPath id="clip0_301_5">
<rect width="245" height="46" fill="white"/>
</clipPath>
</defs>
</svg>
