<svg width="40" height="40" viewBox="0 0 40 40" fill="none" xmlns="http://www.w3.org/2000/svg">
<path d="M9.70678 6.05325L20.0001 16.3466L30.2401 6.10659C30.4663 5.86583 30.7388 5.67324 31.0412 5.54035C31.3436 5.40746 31.6698 5.33702 32.0001 5.33325C32.7074 5.33325 33.3856 5.6142 33.8857 6.1143C34.3858 6.6144 34.6668 7.29267 34.6668 7.99992C34.673 8.32686 34.6123 8.65162 34.4885 8.95427C34.3647 9.25692 34.1804 9.53108 33.9468 9.75992L23.5734 19.9999L33.9468 30.3733C34.3863 30.8032 34.644 31.3855 34.6668 31.9999C34.6668 32.7072 34.3858 33.3854 33.8857 33.8855C33.3856 34.3856 32.7074 34.6666 32.0001 34.6666C31.6603 34.6807 31.3212 34.624 31.0044 34.5C30.6877 34.3761 30.4001 34.1876 30.1601 33.9466L20.0001 23.6533L9.73344 33.9199C9.50812 34.1526 9.23895 34.3384 8.94145 34.4666C8.64395 34.5948 8.32401 34.6627 8.00011 34.6666C7.29286 34.6666 6.61459 34.3856 6.11449 33.8855C5.61439 33.3854 5.33344 32.7072 5.33344 31.9999C5.32722 31.673 5.38788 31.3482 5.51169 31.0456C5.63551 30.7429 5.81986 30.4688 6.05344 30.2399L16.4268 19.9999L6.05344 9.62659C5.61393 9.19661 5.35621 8.61435 5.33344 7.99992C5.33344 7.29267 5.61439 6.6144 6.11449 6.1143C6.61459 5.6142 7.29286 5.33325 8.00011 5.33325C8.64011 5.34125 9.25344 5.59992 9.70678 6.05325Z" fill="white"/>
</svg>
