<svg width="48" height="48" viewBox="0 0 48 48" fill="none" xmlns="http://www.w3.org/2000/svg">
<path d="M41.756 5.65203L42.062 5.94003L42.352 6.24603C43.564 7.61089 44.2089 9.38709 44.155 11.2116C44.1011 13.0361 43.3524 14.7711 42.062 16.062L18.126 39.998C17.5717 40.5523 16.8823 40.9522 16.126 41.158L5.896 43.948C5.64098 44.0172 5.37221 44.0178 5.11688 43.9498C4.86156 43.8817 4.62875 43.7474 4.442 43.5605C4.25526 43.3735 4.12121 43.1405 4.05343 42.8851C3.98565 42.6297 3.98653 42.361 4.056 42.106L6.844 31.874C7.0502 31.1184 7.45004 30.4297 8.004 29.876L31.94 5.94003C33.2312 4.64989 34.9664 3.90158 36.7908 3.84805C38.6153 3.79452 40.3914 4.43981 41.756 5.65203ZM30.002 12.12L10.126 31.996C9.94159 32.1807 9.80854 32.4102 9.74 32.662L7.64 40.362L15.34 38.262C15.5913 38.1926 15.8201 38.0589 16.004 37.874L35.88 18L30.002 12.12ZM13.052 22L10.052 25H5.5C5.10218 25 4.72064 24.842 4.43934 24.5607C4.15804 24.2794 4 23.8979 4 23.5C4 23.1022 4.15804 22.7207 4.43934 22.4394C4.72064 22.1581 5.10218 22 5.5 22H13.052ZM21.052 14L18.052 17H5.5C5.10218 17 4.72064 16.842 4.43934 16.5607C4.15804 16.2794 4 15.8979 4 15.5C4 15.1022 4.15804 14.7207 4.43934 14.4394C4.72064 14.1581 5.10218 14 5.5 14H21.052ZM34.062 8.06004L32.122 10L38 15.88L39.94 13.94C40.3261 13.5541 40.6324 13.0959 40.8414 12.5915C41.0504 12.0872 41.158 11.5467 41.1581 11.0007C41.1582 10.4548 41.0507 9.91424 40.8419 9.40984C40.6331 8.90545 40.327 8.44712 39.941 8.06103C39.555 7.67495 39.0968 7.36866 38.5925 7.15966C38.0882 6.95067 37.5476 6.84305 37.0017 6.84295C36.4558 6.84286 35.9152 6.9503 35.4108 7.15912C34.9064 7.36795 34.4481 7.67408 34.062 8.06004ZM29.052 6.00003L26.052 9.00003H5.5C5.10218 9.00003 4.72064 8.842 4.43934 8.5607C4.15804 8.27939 4 7.89786 4 7.50003C4 7.10221 4.15804 6.72068 4.43934 6.43937C4.72064 6.15807 5.10218 6.00003 5.5 6.00003H29.052Z" fill="#45A92A"/>
</svg>
