<svg width="40" height="40" viewBox="0 0 40 40" fill="none" xmlns="http://www.w3.org/2000/svg">
<path d="M11.667 11.6667H10.0003C9.11627 11.6667 8.26842 12.0179 7.6433 12.6431C7.01818 13.2682 6.66699 14.116 6.66699 15.0001V30.0001C6.66699 30.8841 7.01818 31.732 7.6433 32.3571C8.26842 32.9822 9.11627 33.3334 10.0003 33.3334H25.0003C25.8844 33.3334 26.7322 32.9822 27.3573 32.3571C27.9825 31.732 28.3337 30.8841 28.3337 30.0001V28.3334" stroke="white" stroke-width="3" stroke-linecap="round" stroke-linejoin="round"/>
<path d="M26.6667 8.33339L31.6667 13.3334M33.975 10.9751C34.6314 10.3186 35.0002 9.42836 35.0002 8.50006C35.0002 7.57175 34.6314 6.68147 33.975 6.02506C33.3186 5.36865 32.4283 4.99988 31.5 4.99988C30.5717 4.99988 29.6814 5.36865 29.025 6.02506L15 20.0001V25.0001H20L33.975 10.9751Z" stroke="white" stroke-width="3" stroke-linecap="round" stroke-linejoin="round"/>
</svg>
