<svg width="32" height="32" viewBox="0 0 32 32" fill="none" xmlns="http://www.w3.org/2000/svg">
<path d="M21.035 17.035L21.035 17.035L15.702 22.368C15.702 22.368 15.7019 22.3681 15.7019 22.3681C15.5663 22.5047 15.4051 22.6132 15.2274 22.6872C15.0497 22.7612 14.8591 22.7994 14.6666 22.7994C14.4741 22.7994 14.2835 22.7612 14.1057 22.6872C13.9282 22.6132 13.767 22.5049 13.6315 22.3683C13.6314 22.3682 13.6313 22.3681 13.6312 22.368L13.7199 22.28C13.5949 22.156 13.4958 22.0085 13.4281 21.8461C13.3604 21.6836 13.3255 21.5093 13.3255 21.3333C13.3255 21.1573 13.3604 20.983 13.4281 20.8205C13.4958 20.658 13.5949 20.5106 13.7199 20.3866L21.035 17.035ZM21.035 17.035L21.0369 17.0331C21.1694 16.8947 21.2733 16.7315 21.3427 16.553C21.4879 16.1986 21.4879 15.8013 21.3427 15.4469M21.035 17.035L13.6319 20.2979L16.4839 17.4583H6.66659C6.27981 17.4583 5.90888 17.3046 5.63539 17.0312C5.3619 16.7577 5.20825 16.3867 5.20825 16C5.20825 15.6132 5.3619 15.2423 5.63539 14.9688C5.90888 14.6953 6.27981 14.5416 6.66659 14.5416H16.4839L13.6317 11.7019L13.6315 11.7017C13.4956 11.5658 13.3878 11.4044 13.3142 11.2268C13.2407 11.0492 13.2028 10.8589 13.2028 10.6666C13.2028 10.4744 13.2407 10.2841 13.3142 10.1065C13.3878 9.92886 13.4956 9.7675 13.6315 9.63157C13.7675 9.49565 13.9288 9.38782 14.1064 9.31426C14.284 9.2407 14.4744 9.20284 14.6666 9.20284C14.8588 9.20284 15.0492 9.2407 15.2268 9.31426C15.4043 9.38782 15.5657 9.49565 15.7016 9.63157L21.035 14.9649L21.0369 14.9668L21.0369 14.9669C21.1694 15.1052 21.2733 15.2684 21.3427 15.4469M21.3427 15.4469C21.3428 15.4473 21.343 15.4477 21.3431 15.4481L21.2266 15.4933L21.3422 15.4458C21.3424 15.4462 21.3425 15.4466 21.3427 15.4469ZM22.6666 2.54163H9.33325C8.23923 2.54163 7.19002 2.97622 6.41644 3.74981C5.64285 4.5234 5.20825 5.57261 5.20825 6.66663V10.6666C5.20825 11.0534 5.3619 11.4243 5.63539 11.6978C5.90888 11.9713 6.27981 12.125 6.66659 12.125C7.05336 12.125 7.42429 11.9713 7.69778 11.6978C7.97127 11.4243 8.12492 11.0534 8.12492 10.6666V6.66663C8.12492 6.34616 8.25222 6.03881 8.47883 5.81221C8.70544 5.5856 9.01278 5.45829 9.33325 5.45829H22.6666C22.9871 5.45829 23.2944 5.5856 23.521 5.81221C23.7476 6.03881 23.8749 6.34616 23.8749 6.66663V25.3333C23.8749 25.6538 23.7476 25.9611 23.521 26.1877C23.2944 26.4143 22.9871 26.5416 22.6666 26.5416H9.33325C9.01278 26.5416 8.70544 26.4143 8.47883 26.1877C8.25223 25.9611 8.12492 25.6538 8.12492 25.3333V21.3333C8.12492 20.9465 7.97127 20.5756 7.69778 20.3021C7.42429 20.0286 7.05336 19.875 6.66659 19.875C6.27981 19.875 5.90888 20.0286 5.63539 20.3021C5.3619 20.5756 5.20825 20.9465 5.20825 21.3333V25.3333C5.20825 26.4273 5.64285 27.4765 6.41644 28.2501C7.19002 29.0237 8.23923 29.4583 9.33325 29.4583H22.6666C23.7606 29.4583 24.8098 29.0237 25.5834 28.2501C26.357 27.4765 26.7916 26.4273 26.7916 25.3333V6.66663C26.7916 5.57261 26.357 4.5234 25.5834 3.74981C24.8098 2.97622 23.7606 2.54163 22.6666 2.54163Z" fill="black" stroke="black" stroke-width="0.25"/>
</svg>
