<svg width="48" height="48" viewBox="0 0 48 48" fill="none" xmlns="http://www.w3.org/2000/svg">
<path d="M40 20.0001C41.0609 20.0001 42.0783 20.4215 42.8284 21.1717C43.5786 21.9218 44 22.9392 44 24.0001V25.0001C44 28.3881 39.506 35.9801 36.034 38.9661L36 38.9921V40.0001C36.0003 41.0092 35.6192 41.9812 34.933 42.7212C34.2468 43.4611 33.3063 43.9144 32.3 43.9901L32 44.0001H16C14.9391 44.0001 13.9217 43.5786 13.1716 42.8285C12.4214 42.0784 12 41.0609 12 40.0001V39.0081L11.87 38.9021C8.35 35.9101 4.282 28.9721 4.014 25.3621L4 25.0001V24.0001C4 22.9392 4.42143 21.9218 5.17157 21.1717C5.92172 20.4215 6.93913 20.0001 8 20.0001H40ZM22.834 6.37608C23.0467 6.21422 23.2898 6.09666 23.5487 6.03033C23.8076 5.964 24.0773 5.95025 24.3416 5.98989C24.606 6.02953 24.8597 6.12177 25.0878 6.26114C25.3159 6.40051 25.5137 6.58419 25.6696 6.80133C25.8255 7.01846 25.9363 7.26465 25.9954 7.52533C26.0546 7.78601 26.0609 8.0559 26.0139 8.31905C25.967 8.5822 25.8677 8.83327 25.7221 9.05742C25.5765 9.28157 25.3874 9.47425 25.166 9.62408C24.416 10.1641 23.98 11.0361 24 12.0421C23.9903 12.4965 24.0914 12.9465 24.2945 13.3532C24.4977 13.7598 24.7968 14.1109 25.166 14.3761C25.3874 14.5259 25.5765 14.7186 25.7221 14.9427C25.8677 15.1669 25.967 15.418 26.0139 15.6811C26.0609 15.9443 26.0546 16.2141 25.9954 16.4748C25.9363 16.7355 25.8255 16.9817 25.6696 17.1988C25.5137 17.416 25.3159 17.5996 25.0878 17.739C24.8597 17.8784 24.606 17.9706 24.3416 18.0103C24.0773 18.0499 23.8076 18.0362 23.5487 17.9698C23.2898 17.9035 23.0467 17.7859 22.834 17.6241C21.9466 16.9911 21.2254 16.1529 20.7319 15.1809C20.2384 14.2089 19.9873 13.1321 20 12.0421C19.9771 10.9386 20.2231 9.84604 20.7169 8.85888C21.2106 7.87172 21.9372 7.01959 22.834 6.37608ZM30.834 6.37608C31.0467 6.21422 31.2898 6.09666 31.5487 6.03033C31.8076 5.964 32.0773 5.95025 32.3416 5.98989C32.606 6.02953 32.8597 6.12177 33.0878 6.26114C33.3159 6.40051 33.5137 6.58419 33.6696 6.80133C33.8255 7.01846 33.9363 7.26465 33.9954 7.52533C34.0546 7.78601 34.0609 8.0559 34.0139 8.31905C33.967 8.5822 33.8677 8.83327 33.7221 9.05742C33.5765 9.28157 33.3874 9.47425 33.166 9.62408C32.416 10.1641 31.98 11.0361 32 12.0421C31.9903 12.4965 32.0914 12.9465 32.2945 13.3532C32.4977 13.7598 32.7968 14.1109 33.166 14.3761C33.3874 14.5259 33.5765 14.7186 33.7221 14.9427C33.8677 15.1669 33.967 15.418 34.0139 15.6811C34.0609 15.9443 34.0546 16.2141 33.9954 16.4748C33.9363 16.7355 33.8255 16.9817 33.6696 17.1988C33.5137 17.416 33.3159 17.5996 33.0878 17.739C32.8597 17.8784 32.606 17.9706 32.3416 18.0103C32.0773 18.0499 31.8076 18.0362 31.5487 17.9698C31.2898 17.9035 31.0467 17.7859 30.834 17.6241C29.9466 16.9911 29.2254 16.1529 28.7319 15.1809C28.2384 14.2089 27.9873 13.1321 28 12.0421C27.9771 10.9386 28.2231 9.84604 28.7169 8.85888C29.2106 7.87172 29.9372 7.01959 30.834 6.37608ZM14.834 6.37608C15.0467 6.21422 15.2898 6.09666 15.5487 6.03033C15.8076 5.964 16.0773 5.95025 16.3416 5.98989C16.606 6.02953 16.8597 6.12177 17.0878 6.26114C17.3159 6.40051 17.5137 6.58419 17.6696 6.80133C17.8255 7.01846 17.9363 7.26465 17.9954 7.52533C18.0546 7.78601 18.0609 8.0559 18.0139 8.31905C17.967 8.5822 17.8677 8.83327 17.7221 9.05742C17.5765 9.28157 17.3874 9.47425 17.166 9.62408C16.416 10.1641 15.98 11.0361 16 12.0421C15.9903 12.4965 16.0914 12.9465 16.2945 13.3532C16.4977 13.7598 16.7968 14.1109 17.166 14.3761C17.3874 14.5259 17.5765 14.7186 17.7221 14.9427C17.8677 15.1669 17.967 15.418 18.0139 15.6811C18.0609 15.9443 18.0546 16.2141 17.9954 16.4748C17.9363 16.7355 17.8255 16.9817 17.6696 17.1988C17.5137 17.416 17.3159 17.5996 17.0878 17.739C16.8597 17.8784 16.606 17.9706 16.3416 18.0103C16.0773 18.0499 15.8076 18.0362 15.5487 17.9698C15.2898 17.9035 15.0467 17.7859 14.834 17.6241C13.9466 16.9911 13.2254 16.1529 12.7319 15.1809C12.2384 14.2089 11.9873 13.1321 12 12.0421C11.9771 10.9386 12.2231 9.84604 12.7169 8.85888C13.2106 7.87172 13.9372 7.01959 14.834 6.37608Z" fill="#45A92A"/>
</svg>
