<svg width="64" height="64" viewBox="0 0 64 64" fill="none" xmlns="http://www.w3.org/2000/svg">
<path d="M58.6663 31.9999C58.6663 31.2927 58.3854 30.6144 57.8853 30.1143C57.3852 29.6142 56.7069 29.3333 55.9997 29.3333C55.2924 29.3333 54.6141 29.6142 54.1141 30.1143C53.614 30.6144 53.333 31.2927 53.333 31.9999H58.6663ZM31.9997 10.6666C32.7069 10.6666 33.3852 10.3856 33.8853 9.88554C34.3854 9.38544 34.6663 8.70716 34.6663 7.99992C34.6663 7.29267 34.3854 6.6144 33.8853 6.1143C33.3852 5.6142 32.7069 5.33325 31.9997 5.33325V10.6666ZM51.9997 53.3332H11.9997V58.6666H51.9997V53.3332ZM10.6663 51.9999V11.9999H5.33301V51.9999H10.6663ZM53.333 31.9999V51.9999H58.6663V31.9999H53.333ZM11.9997 10.6666H31.9997V5.33325H11.9997V10.6666ZM11.9997 53.3332C11.6461 53.3332 11.3069 53.1928 11.0569 52.9427C10.8068 52.6927 10.6663 52.3535 10.6663 51.9999H5.33301C5.33301 53.768 6.03539 55.4637 7.28563 56.714C8.53587 57.9642 10.2316 58.6666 11.9997 58.6666V53.3332ZM51.9997 58.6666C53.7678 58.6666 55.4635 57.9642 56.7137 56.714C57.964 55.4637 58.6663 53.768 58.6663 51.9999H53.333C53.333 52.3535 53.1925 52.6927 52.9425 52.9427C52.6924 53.1928 52.3533 53.3332 51.9997 53.3332V58.6666ZM10.6663 11.9999C10.6663 11.6463 10.8068 11.3072 11.0569 11.0571C11.3069 10.8071 11.6461 10.6666 11.9997 10.6666V5.33325C10.2316 5.33325 8.53587 6.03563 7.28563 7.28587C6.03539 8.53612 5.33301 10.2318 5.33301 11.9999H10.6663Z" fill="black"/>
<path d="M8 46.6667L22.2573 33.5973C22.7379 33.1569 23.3631 32.9077 24.0149 32.8969C24.6666 32.8861 25.2998 33.1144 25.7947 33.5387L42.6667 48M37.3333 41.3333L43.6973 34.9693C44.1513 34.5151 44.7538 34.24 45.3944 34.1944C46.0349 34.1488 46.6704 34.3359 47.184 34.7213L56 41.3333M40 16H56M48 8V24" stroke="black" stroke-width="5" stroke-linecap="round" stroke-linejoin="round"/>
</svg>
