<svg width="30" height="30" viewBox="0 0 30 30" fill="none" xmlns="http://www.w3.org/2000/svg">
<path d="M17.1071 3.28207L17.1071 3.28209L17.1131 3.276C17.443 2.9404 17.9825 2.93083 18.3334 3.27256C18.5394 3.48053 18.6293 3.77459 18.57 4.07597C18.5698 4.07693 18.5696 4.07789 18.5694 4.07885L17.3833 9.79686L17.1338 11H18.3625H25.425C27.3921 11 28.7254 13.0146 27.955 14.8331C27.9548 14.8336 27.9546 14.834 27.9544 14.8344L23.8826 24.3394C23.6383 24.8931 23.0944 25.25 22.5 25.25H11.25C10.4273 25.25 9.75 24.5727 9.75 23.75V11.2625C9.75 10.8618 9.90954 10.4796 10.1821 10.2071L17.1071 3.28207ZM5.25 23.75C5.25 24.5727 4.57271 25.25 3.75 25.25C2.92728 25.25 2.25 24.5727 2.25 23.75V13.75C2.25 12.9272 2.92728 12.25 3.75 12.25C4.57271 12.25 5.25 12.9272 5.25 13.75V23.75Z" stroke="black" stroke-width="2"/>
</svg>
