<svg width="32" height="32" viewBox="0 0 32 32" fill="none" xmlns="http://www.w3.org/2000/svg">
<path d="M26.7917 8.49999V8.5C26.7917 8.88677 26.638 9.25771 26.3645 9.5312C26.091 9.80469 25.7201 9.95833 25.3333 9.95833C24.9466 9.95833 24.5756 9.80469 24.3021 9.5312C24.0286 9.25771 23.875 8.88678 23.875 8.50001C23.875 8.50001 23.875 8.5 23.875 8.5L23.8748 6.66664V6.66663C23.8748 6.34616 23.7475 6.03881 23.5209 5.81221C23.2943 5.5856 22.987 5.45829 22.6665 5.45829H9.33317C9.0127 5.45829 8.70535 5.5856 8.47875 5.81221C8.25214 6.03881 8.12484 6.34616 8.12484 6.66663V25.3333C8.12484 25.6538 8.25214 25.9611 8.47875 26.1877C8.70535 26.4143 9.0127 26.5416 9.33317 26.5416H22.6665C22.987 26.5416 23.2943 26.4143 23.5209 26.1877C23.7475 25.9611 23.8748 25.6538 23.8748 25.3333L23.8748 23.3333C23.8748 22.9466 24.0285 22.5756 24.302 22.3021C24.5755 22.0286 24.9464 21.875 25.3332 21.875C25.7199 21.875 26.0909 22.0286 26.3644 22.3021C26.6379 22.5756 26.7915 22.9466 26.7915 23.3333V25.3333C26.7915 26.4273 26.3569 27.4765 25.5833 28.2501C24.8097 29.0237 23.7605 29.4583 22.6665 29.4583H9.33317C8.23915 29.4583 7.18994 29.0237 6.41635 28.2501C5.64277 27.4765 5.20817 26.4273 5.20817 25.3333V6.66663C5.20817 5.57261 5.64277 4.5234 6.41635 3.74981C7.18994 2.97622 8.23915 2.54163 9.33317 2.54163H22.6665C23.7605 2.54163 24.8097 2.97622 25.5833 3.74981C26.3569 4.5234 26.7915 5.5726 26.7915 6.66661C26.7915 6.66662 26.7915 6.66662 26.7915 6.66663L26.7917 8.49999Z" fill="black" stroke="black" stroke-width="0.25"/>
<path d="M19.5 21.5L25 16L19.5 10.5M12.5 15.996L18.5 16L25 15.996" stroke="black" stroke-width="3" stroke-linecap="round" stroke-linejoin="round"/>
</svg>
