<svg width="32" height="32" viewBox="0 0 32 32" fill="none" xmlns="http://www.w3.org/2000/svg">
<path d="M22.1639 5.17196C21.2359 6.09996 20.2139 7.99796 19.8199 9.81196C19.5639 10.996 19.0959 12.346 18.0559 13.342L17.6019 13.774L19.2999 15.32L19.6699 14.932C20.6599 13.896 22.0059 13.428 23.1859 13.172C24.9999 12.776 26.8939 11.756 27.8219 10.828C28.1933 10.4564 28.4878 10.0154 28.6888 9.53008C28.8897 9.04473 28.9931 8.52455 28.993 7.99925C28.9929 7.47395 28.8894 6.95381 28.6882 6.46853C28.4871 5.98325 28.1924 5.54234 27.8209 5.17096C27.4494 4.79958 27.0084 4.50501 26.523 4.30407C26.0377 4.10314 25.5175 3.99976 24.9922 3.99986C23.9313 4.00004 22.9139 4.42166 22.1639 5.17196ZM21.1159 16.314L20.7799 16.666L26.8119 22.156L26.8279 22.172C27.2099 22.5409 27.5147 22.9823 27.7243 23.4703C27.9339 23.9584 28.0443 24.4832 28.0489 25.0144C28.0535 25.5455 27.9523 26.0722 27.7512 26.5638C27.5501 27.0554 27.2531 27.502 26.8775 27.8775C26.5019 28.2531 26.0553 28.5501 25.5637 28.7512C25.0721 28.9524 24.5454 29.0536 24.0143 29.049C23.4832 29.0443 22.9583 28.934 22.4703 28.7244C21.9823 28.5147 21.5409 28.21 21.1719 27.828L21.1559 27.812L15.7759 21.902L9.9759 27.976C9.31949 28.6324 8.42921 29.0011 7.5009 29.0011C6.5726 29.0011 5.68231 28.6324 5.0259 27.976C4.36949 27.3195 4.00072 26.4293 4.00072 25.501C4.00072 24.5727 4.36949 23.6824 5.0259 23.026L5.0419 23.01L10.2819 18.004H9.2419C8.18112 18.0037 7.16387 17.5822 6.4139 16.832L2.1719 12.59C1.8003 12.2185 1.50551 11.7775 1.30439 11.2921C1.10327 10.8067 0.999756 10.2864 0.999756 9.76096C0.999756 9.23553 1.10327 8.71526 1.30439 8.22985C1.50551 7.74444 1.8003 7.30341 2.1719 6.93196L5.9279 3.17596C6.29936 2.80435 6.74039 2.50957 7.22579 2.30845C7.7112 2.10733 8.23148 2.00381 8.7569 2.00381C9.28233 2.00381 9.8026 2.10733 10.288 2.30845C10.7734 2.50957 11.2144 2.80435 11.5859 3.17596L15.8279 7.41596C16.1998 7.78778 16.4948 8.2293 16.6959 8.71525C16.897 9.2012 17.0003 9.72204 16.9999 10.248V11.528C17.4159 10.97 17.6819 10.236 17.8659 9.39196C18.3259 7.26796 19.5059 5.00396 20.7499 3.75996C21.3053 3.19529 21.967 2.74618 22.6969 2.43853C23.4267 2.13088 24.2103 1.97078 25.0023 1.96746C25.7943 1.96414 26.5792 2.11767 27.3116 2.4192C28.044 2.72072 28.7095 3.16427 29.2696 3.72427C29.8297 4.28426 30.2734 4.94961 30.5751 5.68194C30.8768 6.41427 31.0305 7.19909 31.0274 7.99113C31.0243 8.78316 30.8643 9.56674 30.5569 10.2967C30.2494 11.0266 29.8004 11.6884 29.2359 12.244C27.9919 13.488 25.7319 14.666 23.6119 15.128C22.5719 15.354 21.6959 15.708 21.1159 16.316M12.6699 18.488L6.4319 24.448C6.16694 24.7323 6.0227 25.1084 6.02955 25.497C6.03641 25.8856 6.19383 26.2564 6.46866 26.5312C6.74348 26.806 7.11425 26.9635 7.50286 26.9703C7.89146 26.9772 8.26755 26.8329 8.5519 26.568L14.4279 20.42L12.6699 18.488ZM10.1699 4.58796C9.79493 4.21363 9.28674 4.00338 8.7569 4.00338C8.22706 4.00338 7.71888 4.21363 7.3439 4.58796L3.5839 8.34796C3.20896 8.72301 2.99833 9.23163 2.99833 9.76196C2.99833 10.2923 3.20896 10.8009 3.5839 11.176L7.8279 15.416C8.01341 15.602 8.23377 15.7498 8.47639 15.8507C8.71902 15.9515 8.97914 16.0036 9.2419 16.004H11.7879C12.2058 16.0037 12.6191 16.0907 13.0014 16.2595C13.3837 16.4282 13.7265 16.675 14.0079 16.984L22.5999 26.43C22.9752 26.8052 23.4842 27.0161 24.0149 27.0161C24.5456 27.0161 25.0546 26.8052 25.4299 26.43C25.8052 26.0547 26.016 25.5457 26.016 25.015C26.016 24.4842 25.8052 23.9752 25.4299 23.6L15.9799 15.002C15.6712 14.7208 15.4246 14.3783 15.2558 13.9964C15.0871 13.6145 14.9999 13.2015 14.9999 12.784V10.246C14.9998 9.71557 14.789 9.20694 14.4139 8.83196L10.1699 4.58796ZM6.7099 9.29396C6.61693 9.20098 6.50655 9.12723 6.38507 9.07691C6.26359 9.02659 6.13339 9.0007 6.0019 9.0007C5.87041 9.0007 5.74021 9.02659 5.61873 9.07691C5.49726 9.12723 5.38688 9.20098 5.2939 9.29396C5.20093 9.38693 5.12717 9.49731 5.07686 9.61879C5.02654 9.74027 5.00064 9.87047 5.00064 10.002C5.00064 10.1334 5.02654 10.2636 5.07686 10.3851C5.12717 10.5066 5.20093 10.617 5.2939 10.71L8.2939 13.71C8.48167 13.8977 8.73635 14.0032 9.0019 14.0032C9.26745 14.0032 9.52213 13.8977 9.7099 13.71C9.89768 13.5222 10.0032 13.2675 10.0032 13.002C10.0032 12.7364 9.89768 12.4817 9.7099 12.294L6.7099 9.29396ZM8.2939 6.29396C8.38679 6.20083 8.49714 6.12695 8.61863 6.07653C8.74012 6.02612 8.87037 6.00017 9.0019 6.00017C9.13344 6.00017 9.26368 6.02612 9.38517 6.07653C9.50666 6.12695 9.61701 6.20083 9.7099 6.29396L12.7099 9.29396C12.8029 9.38693 12.8766 9.49731 12.9269 9.61879C12.9773 9.74027 13.0032 9.87047 13.0032 10.002C13.0032 10.1334 12.9773 10.2636 12.9269 10.3851C12.8766 10.5066 12.8029 10.617 12.7099 10.71C12.6169 10.8029 12.5065 10.8767 12.3851 10.927C12.2636 10.9773 12.1334 11.0032 12.0019 11.0032C11.8704 11.0032 11.7402 10.9773 11.6187 10.927C11.4973 10.8767 11.3869 10.8029 11.2939 10.71L8.2939 7.70996C8.20078 7.61707 8.12689 7.50672 8.07648 7.38523C8.02606 7.26374 8.00011 7.13349 8.00011 7.00196C8.00011 6.87042 8.02606 6.74018 8.07648 6.61869C8.12689 6.4972 8.20078 6.38685 8.2939 6.29396ZM23.4999 7.99996C23.4999 7.73474 23.3945 7.48039 23.207 7.29285C23.0195 7.10532 22.7651 6.99996 22.4999 6.99996C22.2347 6.99996 21.9803 7.10532 21.7928 7.29285C21.6053 7.48039 21.4999 7.73474 21.4999 7.99996C21.4999 9.93196 23.0679 11.5 24.9999 11.5C25.2651 11.5 25.5195 11.3946 25.707 11.2071C25.8945 11.0195 25.9999 10.7652 25.9999 10.5C25.9999 10.2347 25.8945 9.98039 25.707 9.79285C25.5195 9.60532 25.2651 9.49996 24.9999 9.49996C24.6021 9.49996 24.2205 9.34192 23.9392 9.06062C23.6579 8.77931 23.4999 8.39778 23.4999 7.99996Z" fill="black"/>
<path d="M21.1159 16.314L20.7799 16.666L26.8119 22.156L26.8279 22.172C27.2099 22.5409 27.5147 22.9823 27.7243 23.4703C27.9339 23.9584 28.0443 24.4832 28.0489 25.0144C28.0535 25.5455 27.9523 26.0722 27.7512 26.5638C27.5501 27.0554 27.2531 27.502 26.8775 27.8775C26.5019 28.2531 26.0553 28.5501 25.5637 28.7512C25.0721 28.9524 24.5454 29.0536 24.0143 29.049C23.4832 29.0443 22.9583 28.934 22.4703 28.7244C21.9823 28.5147 21.5409 28.21 21.1719 27.828L21.1559 27.812L15.7759 21.902L9.9759 27.976C9.31949 28.6324 8.42921 29.0011 7.5009 29.0011C6.5726 29.0011 5.68231 28.6324 5.0259 27.976C4.36949 27.3195 4.00072 26.4293 4.00072 25.501C4.00072 24.5727 4.36949 23.6824 5.0259 23.026L5.0419 23.01L10.2819 18.004H9.2419C8.18112 18.0037 7.16387 17.5822 6.4139 16.832L2.1719 12.59C1.8003 12.2185 1.50551 11.7775 1.30439 11.2921C1.10327 10.8067 0.999756 10.2864 0.999756 9.76096C0.999756 9.23553 1.10327 8.71526 1.30439 8.22985C1.50551 7.74444 1.8003 7.30341 2.1719 6.93196L5.9279 3.17596C6.29936 2.80435 6.74039 2.50957 7.22579 2.30845C7.7112 2.10733 8.23148 2.00381 8.7569 2.00381C9.28233 2.00381 9.8026 2.10733 10.288 2.30845C10.7734 2.50957 11.2144 2.80435 11.5859 3.17596L15.8279 7.41596C16.1998 7.78778 16.4948 8.2293 16.6959 8.71525C16.897 9.2012 17.0003 9.72204 16.9999 10.248V11.528C17.4159 10.97 17.6819 10.236 17.8659 9.39196C18.3259 7.26796 19.5059 5.00396 20.7499 3.75996C21.3053 3.19529 21.967 2.74618 22.6969 2.43853C23.4267 2.13088 24.2103 1.97078 25.0023 1.96746C25.7943 1.96414 26.5792 2.11767 27.3116 2.4192C28.044 2.72072 28.7095 3.16427 29.2696 3.72427C29.8297 4.28426 30.2734 4.94961 30.5751 5.68194C30.8768 6.41427 31.0305 7.19909 31.0274 7.99113C31.0243 8.78317 30.8643 9.56674 30.5569 10.2967C30.2494 11.0266 29.8004 11.6884 29.2359 12.244C27.9919 13.488 25.7319 14.666 23.6119 15.128C22.5719 15.354 21.6959 15.708 21.1159 16.316M22.1639 5.17196C21.2359 6.09996 20.2139 7.99796 19.8199 9.81196C19.5639 10.996 19.0959 12.346 18.0559 13.342L17.6019 13.774L19.2999 15.32L19.6699 14.932C20.6599 13.896 22.0059 13.428 23.1859 13.172C24.9999 12.776 26.8939 11.756 27.8219 10.828C28.1933 10.4564 28.4878 10.0154 28.6888 9.53008C28.8897 9.04473 28.9931 8.52455 28.993 7.99925C28.9929 7.47395 28.8894 6.95381 28.6882 6.46853C28.4871 5.98325 28.1924 5.54234 27.8209 5.17096C27.4494 4.79958 27.0084 4.50501 26.523 4.30407C26.0377 4.10314 25.5175 3.99976 24.9922 3.99986C23.9313 4.00004 22.9139 4.42166 22.1639 5.17196ZM12.6699 18.488L6.4319 24.448C6.16694 24.7323 6.0227 25.1084 6.02955 25.497C6.03641 25.8856 6.19383 26.2564 6.46866 26.5312C6.74348 26.806 7.11425 26.9635 7.50286 26.9703C7.89146 26.9772 8.26755 26.8329 8.5519 26.568L14.4279 20.42L12.6699 18.488ZM10.1699 4.58796C9.79493 4.21363 9.28674 4.00338 8.7569 4.00338C8.22706 4.00338 7.71888 4.21363 7.3439 4.58796L3.5839 8.34796C3.20896 8.72301 2.99833 9.23163 2.99833 9.76196C2.99833 10.2923 3.20896 10.8009 3.5839 11.176L7.8279 15.416C8.01341 15.6021 8.23377 15.7498 8.47639 15.8507C8.71902 15.9515 8.97914 16.0036 9.2419 16.004H11.7879C12.2058 16.0037 12.6191 16.0907 13.0014 16.2595C13.3837 16.4282 13.7265 16.675 14.0079 16.984L22.5999 26.43C22.9752 26.8052 23.4842 27.0161 24.0149 27.0161C24.5456 27.0161 25.0546 26.8052 25.4299 26.43C25.8052 26.0547 26.016 25.5457 26.016 25.015C26.016 24.4842 25.8052 23.9752 25.4299 23.6L15.9799 15.002C15.6712 14.7208 15.4246 14.3783 15.2558 13.9964C15.0871 13.6145 14.9999 13.2015 14.9999 12.784V10.246C14.9998 9.71557 14.789 9.20694 14.4139 8.83196L10.1699 4.58796ZM6.7099 9.29396C6.61693 9.20098 6.50655 9.12723 6.38507 9.07691C6.26359 9.02659 6.13339 9.0007 6.0019 9.0007C5.87041 9.0007 5.74021 9.02659 5.61873 9.07691C5.49726 9.12723 5.38688 9.20098 5.2939 9.29396C5.20093 9.38693 5.12717 9.49731 5.07686 9.61879C5.02654 9.74027 5.00064 9.87047 5.00064 10.002C5.00064 10.1334 5.02654 10.2636 5.07686 10.3851C5.12717 10.5066 5.20093 10.617 5.2939 10.71L8.2939 13.71C8.48167 13.8977 8.73635 14.0032 9.0019 14.0032C9.26745 14.0032 9.52213 13.8977 9.7099 13.71C9.89768 13.5222 10.0032 13.2675 10.0032 13.002C10.0032 12.7364 9.89768 12.4817 9.7099 12.294L6.7099 9.29396ZM8.2939 6.29396C8.38679 6.20083 8.49714 6.12695 8.61863 6.07653C8.74012 6.02612 8.87037 6.00017 9.0019 6.00017C9.13344 6.00017 9.26368 6.02612 9.38517 6.07653C9.50666 6.12695 9.61701 6.20083 9.7099 6.29396L12.7099 9.29396C12.8029 9.38693 12.8766 9.49731 12.9269 9.61879C12.9773 9.74027 13.0032 9.87047 13.0032 10.002C13.0032 10.1334 12.9773 10.2636 12.9269 10.3851C12.8766 10.5066 12.8029 10.617 12.7099 10.71C12.6169 10.8029 12.5065 10.8767 12.3851 10.927C12.2636 10.9773 12.1334 11.0032 12.0019 11.0032C11.8704 11.0032 11.7402 10.9773 11.6187 10.927C11.4973 10.8767 11.3869 10.8029 11.2939 10.71L8.2939 7.70996C8.20077 7.61707 8.12689 7.50672 8.07648 7.38523C8.02606 7.26374 8.00011 7.13349 8.00011 7.00196C8.00011 6.87042 8.02606 6.74018 8.07648 6.61869C8.12689 6.4972 8.20077 6.38685 8.2939 6.29396ZM23.4999 7.99996C23.4999 7.73474 23.3945 7.48039 23.207 7.29285C23.0195 7.10532 22.7651 6.99996 22.4999 6.99996C22.2347 6.99996 21.9803 7.10532 21.7928 7.29285C21.6053 7.48039 21.4999 7.73474 21.4999 7.99996C21.4999 9.93196 23.0679 11.5 24.9999 11.5C25.2651 11.5 25.5195 11.3946 25.707 11.2071C25.8945 11.0195 25.9999 10.7652 25.9999 10.5C25.9999 10.2347 25.8945 9.98039 25.707 9.79285C25.5195 9.60532 25.2651 9.49996 24.9999 9.49996C24.6021 9.49996 24.2205 9.34192 23.9392 9.06062C23.6579 8.77931 23.4999 8.39778 23.4999 7.99996Z" stroke="black" stroke-width="0.5"/>
</svg>
