<svg width="18" height="18" viewBox="0 0 18 18" fill="none" xmlns="http://www.w3.org/2000/svg">
<g clip-path="url(#clip0_355_26)">
<path d="M16.8104 8.76501C15.1254 5.65001 12.1704 3.76501 8.90035 3.76501C5.63035 3.76501 2.67035 5.65001 1.00035 8.76501L0.860352 9.00001L0.990352 9.24001C2.67535 12.355 5.63035 14.24 8.90035 14.24C12.1704 14.24 15.1304 12.38 16.8104 9.24001L16.9404 9.00001L16.8104 8.76501ZM8.90035 13.215C6.08535 13.215 3.50035 11.645 2.00035 9.00001C3.50035 6.35501 6.08535 4.78501 8.90035 4.78501C11.7154 4.78501 14.2704 6.36001 15.7954 9.00001C14.2704 11.645 11.7104 13.215 8.90035 13.215Z" fill="black"/>
<path d="M9.04462 5.58505C8.36668 5.59 7.70541 5.79574 7.14433 6.17629C6.58325 6.55684 6.14753 7.09513 5.8922 7.72317C5.63687 8.35121 5.57339 9.04084 5.70976 9.70494C5.84614 10.369 6.17626 10.9778 6.65844 11.4544C7.14061 11.931 7.7532 12.254 8.41885 12.3827C9.08449 12.5113 9.77332 12.4398 10.3983 12.1772C11.0234 11.9145 11.5566 11.4726 11.9305 10.9071C12.3045 10.3416 12.5026 9.678 12.4996 9.00005C12.4977 8.54877 12.4067 8.10231 12.2318 7.68626C12.057 7.27021 11.8018 6.89275 11.4809 6.5755C11.1599 6.25826 10.7795 6.00747 10.3614 5.83751C9.94338 5.66755 9.49589 5.58176 9.04462 5.58505ZM9.04462 11.4451C8.56574 11.4401 8.09901 11.2938 7.70302 11.0245C7.30704 10.7551 6.99947 10.3748 6.81894 9.93122C6.63841 9.48766 6.59297 9.00063 6.68832 8.53133C6.78368 8.06202 7.01558 7.63135 7.35491 7.29341C7.69423 6.95547 8.12584 6.72533 8.59553 6.63189C9.06523 6.53844 9.55206 6.58587 9.99488 6.76821C10.4377 6.95055 10.8168 7.25967 11.0845 7.65675C11.3522 8.05383 11.4966 8.52116 11.4996 9.00005C11.501 9.32235 11.4383 9.64171 11.3153 9.93961C11.1922 10.2375 11.0113 10.508 10.7829 10.7354C10.5546 10.9629 10.2833 11.1427 9.98492 11.2645C9.68652 11.3863 9.36691 11.4477 9.04462 11.4451Z" fill="black"/>
<path d="M2.23675 2.75855L4.45199 5.02909C3.05149 5.95279 1.90703 7.23103 1.12914 8.74036L1 8.97964L1.12914 9.224C2.80298 12.3956 5.73841 14.3149 8.98675 14.3149C10.2547 14.3152 11.5062 14.021 12.6474 13.4545L15.1308 16L16 15.2364L3.08609 2L2.23675 2.75855ZM7.07947 7.72218L10.3824 11.1076C10.0094 11.3447 9.57966 11.4715 9.14073 11.4742C8.82182 11.4742 8.50606 11.4096 8.21161 11.284C7.91716 11.1585 7.64984 10.9745 7.42504 10.7426C7.20023 10.5108 7.02237 10.2357 6.90169 9.9331C6.78101 9.63054 6.71989 9.3065 6.72185 8.97964C6.7272 8.53494 6.85085 8.10017 7.07947 7.72218ZM6.35927 6.984C5.89459 7.65569 5.67678 8.47426 5.74443 9.29476C5.81207 10.1153 6.1608 10.8848 6.72886 11.467C7.29692 12.0492 8.04767 12.4067 8.84818 12.476C9.64869 12.5453 10.4473 12.3221 11.1026 11.8458L11.8973 12.6604C10.9774 13.0636 9.98727 13.2714 8.98675 13.2713C6.1904 13.2713 3.64735 11.6727 2.13245 8.97964C2.85964 7.66032 3.90663 6.55563 5.17219 5.77236L6.35927 6.984Z" fill="black"/>
</g>
<defs>
<clipPath id="clip0_355_26">
<rect width="18" height="18" fill="white"/>
</clipPath>
</defs>
</svg>
