<svg width="48" height="48" viewBox="0 0 48 48" fill="none" xmlns="http://www.w3.org/2000/svg">
<path d="M38.96 24.6998C35.82 16.5398 24.64 16.0998 27.34 4.23979C27.54 3.35979 26.6 2.67979 25.84 3.13979C18.58 7.41979 13.36 15.9998 17.74 27.2398C18.1 28.1598 17.02 29.0198 16.24 28.4198C12.62 25.6798 12.24 21.7398 12.56 18.9198C12.68 17.8798 11.32 17.3798 10.74 18.2398C9.38 20.3198 8 23.6798 8 28.7398C8.76 39.9398 18.22 43.3798 21.62 43.8198C26.48 44.4398 31.74 43.5398 35.52 40.0798C39.68 36.2198 41.2 30.0598 38.96 24.6998ZM20.4 34.7598C23.28 34.0598 24.76 31.9798 25.16 30.1398C25.82 27.2798 23.24 24.4798 24.98 19.9598C25.64 23.6998 31.52 26.0398 31.52 30.1198C31.68 35.1798 26.2 39.5198 20.4 34.7598Z" fill="black"/>
<path d="M38.96 24.6998C35.82 16.5398 24.64 16.0998 27.34 4.23979C27.54 3.35979 26.6 2.67979 25.84 3.13979C18.58 7.41979 13.36 15.9998 17.74 27.2398C18.1 28.1598 17.02 29.0198 16.24 28.4198C12.62 25.6798 12.24 21.7398 12.56 18.9198C12.68 17.8798 11.32 17.3798 10.74 18.2398C9.38 20.3198 8 23.6798 8 28.7398C8.76 39.9398 18.22 43.3798 21.62 43.8198C26.48 44.4398 31.74 43.5398 35.52 40.0798C39.68 36.2198 41.2 30.0598 38.96 24.6998ZM20.4 34.7598C23.28 34.0598 24.76 31.9798 25.16 30.1398C25.82 27.2798 23.24 24.4798 24.98 19.9598C25.64 23.6998 31.52 26.0398 31.52 30.1198C31.68 35.1798 26.2 39.5198 20.4 34.7598Z" fill="#45A92A"/>
</svg>
