<svg width="30" height="30" viewBox="0 0 30 30" fill="none" xmlns="http://www.w3.org/2000/svg">
<path fill-rule="evenodd" clip-rule="evenodd" d="M20.091 11.1819C20.091 12.532 19.5546 13.8269 18.5999 14.7817C17.6452 15.7364 16.3503 16.2728 15.0001 16.2728C13.6499 16.2728 12.355 15.7364 11.4003 14.7817C10.4455 13.8269 9.90918 12.532 9.90918 11.1819C9.90918 9.83166 10.4455 8.53677 11.4003 7.58203C12.355 6.6273 13.6499 6.09094 15.0001 6.09094C16.3503 6.09094 17.6452 6.6273 18.5999 7.58203C19.5546 8.53677 20.091 9.83166 20.091 11.1819ZM17.5455 11.1819C17.5455 11.8569 17.2774 12.5044 16.8 12.9818C16.3226 13.4591 15.6752 13.7273 15.0001 13.7273C14.325 13.7273 13.6775 13.4591 13.2002 12.9818C12.7228 12.5044 12.4546 11.8569 12.4546 11.1819C12.4546 10.5068 12.7228 9.85931 13.2002 9.38194C13.6775 8.90458 14.325 8.6364 15.0001 8.6364C15.6752 8.6364 16.3226 8.90458 16.8 9.38194C17.2774 9.85931 17.5455 10.5068 17.5455 11.1819Z" fill="black" stroke="black" stroke-width="0.5"/>
<path fill-rule="evenodd" clip-rule="evenodd" d="M15 1C7.26818 1 1 7.26818 1 15C1 22.7318 7.26818 29 15 29C22.7318 29 29 22.7318 29 15C29 7.26818 22.7318 1 15 1ZM3.54545 15C3.54545 17.66 4.45291 20.1087 5.97382 22.0535C7.0422 20.6511 8.4202 19.5145 10.0003 18.7326C11.5803 17.9506 13.3197 17.5443 15.0827 17.5455C16.823 17.5434 18.5408 17.9388 20.1051 18.7016C21.6693 19.4643 23.0388 20.5742 24.1089 21.9465C25.2117 20.5002 25.9542 18.8121 26.275 17.0218C26.5958 15.2316 26.4856 13.3907 25.9537 11.6514C25.4218 9.91219 24.4834 8.32461 23.2161 7.02005C21.9488 5.71549 20.389 4.73146 18.6659 4.14937C16.9428 3.56729 15.1059 3.40389 13.3071 3.67269C11.5083 3.94149 9.79937 4.63477 8.32171 5.69516C6.84404 6.75555 5.64012 8.15256 4.80956 9.77061C3.97901 11.3887 3.54568 13.1812 3.54545 15ZM15 26.4545C12.3704 26.4588 9.82018 25.5542 7.78109 23.8938C8.60176 22.7186 9.69425 21.7591 10.9656 21.0969C12.2369 20.4348 13.6493 20.0897 15.0827 20.0909C16.4982 20.0897 17.8936 20.4262 19.1529 21.0726C20.4122 21.7189 21.4991 22.6565 22.3233 23.8073C20.2684 25.5216 17.6761 26.4587 15 26.4545Z" fill="black" stroke="black" stroke-width="0.5"/>
</svg>
