<svg width="48" height="48" viewBox="0 0 48 48" fill="none" xmlns="http://www.w3.org/2000/svg">
<path fill-rule="evenodd" clip-rule="evenodd" d="M21.35 9.5C21.922 9.5 22.266 9.502 22.5 9.516V14.852C22.5 15.368 22.5 15.84 22.532 16.236C22.5899 17.0741 22.949 17.863 23.543 18.457C24.137 19.051 24.9259 19.4101 25.764 19.468C26.16 19.5 26.632 19.5 27.148 19.5H32.484C32.498 19.734 32.5 20.078 32.5 20.65V24C32.5 24.3978 32.658 24.7794 32.9393 25.0607C33.2206 25.342 33.6022 25.5 34 25.5C34.3978 25.5 34.7794 25.342 35.0607 25.0607C35.342 24.7794 35.5 24.3978 35.5 24V20.506C35.5 19.668 35.5 19.01 35.348 18.372C35.2111 17.8118 34.9884 17.2762 34.688 16.784C34.348 16.224 33.88 15.758 33.288 15.168L29.028 10.908L26.936 8.814L26.832 8.712C26.242 8.12 25.776 7.652 25.216 7.312C24.7232 7.01136 24.1868 6.78873 23.626 6.652C22.99 6.5 22.332 6.5 21.494 6.5H16.34C15.27 6.5 14.38 6.5 13.65 6.56C12.89 6.62 12.178 6.756 11.504 7.1C10.4689 7.62734 9.62734 8.46889 9.1 9.504C8.756 10.178 8.62 10.89 8.56 11.65C8.5 12.38 8.5 13.27 8.5 14.34V33.66C8.5 34.73 8.5 35.62 8.56 36.35C8.79 39.172 10.888 41.214 13.65 41.44C15.158 41.564 16.686 41.54 18.206 41.518C18.806 41.5073 19.404 41.5013 20 41.5C20.3978 41.5 20.7794 41.342 21.0607 41.0607C21.342 40.7794 21.5 40.3978 21.5 40C21.5 39.6022 21.342 39.2206 21.0607 38.9393C20.7794 38.658 20.3978 38.5 20 38.5C19.412 38.5013 18.8207 38.508 18.226 38.52C16.78 38.544 15.326 38.568 13.894 38.45C12.568 38.342 11.662 37.488 11.55 36.104C11.502 35.514 11.5 34.744 11.5 33.6V14.4C11.5 13.256 11.5 12.486 11.55 11.894C11.662 10.512 12.568 9.658 13.894 9.55C14.486 9.502 15.254 9.5 16.4 9.5H21.35ZM25.5 14.8V11.62L30.38 16.5H27.2C26.616 16.5 26.266 16.5 26.008 16.478C25.682 16.45 25.548 16.298 25.522 15.992C25.4999 15.5951 25.4925 15.1975 25.5 14.8Z" fill="#45A92A"/>
<path d="M31.5 32C31.5 31.7348 31.3946 31.4804 31.2071 31.2929C31.0196 31.1054 30.7652 31 30.5 31C30.2348 31 29.9804 31.1054 29.7929 31.2929C29.6054 31.4804 29.5 31.7348 29.5 32V36C29.5 36.2652 29.6054 36.5196 29.7929 36.7071C29.9804 36.8946 30.2348 37 30.5 37H33.5C33.7652 37 34.0196 36.8946 34.2071 36.7071C34.3946 36.5196 34.5 36.2652 34.5 36C34.5 35.7348 34.3946 35.4804 34.2071 35.2929C34.0196 35.1054 33.7652 35 33.5 35H31.5V32Z" fill="#45A92A"/>
<path fill-rule="evenodd" clip-rule="evenodd" d="M31 26.5C29.8689 26.4989 28.7489 26.7241 27.7061 27.1624C26.6633 27.6007 25.7187 28.2432 24.928 29.052C23.3699 30.6395 22.4979 32.7756 22.5 35C22.5 37.316 23.428 39.418 24.928 40.948C25.7187 41.7569 26.6633 42.3993 27.7061 42.8376C28.7489 43.2759 29.8689 43.5011 31 43.5C32.1312 43.5011 33.2511 43.2759 34.2939 42.8376C35.3367 42.3993 36.2813 41.7569 37.072 40.948C38.6301 39.3605 39.5021 37.2244 39.5 35C39.5021 32.7756 38.6301 30.6395 37.072 29.052C36.2813 28.2432 35.3367 27.6007 34.2939 27.1624C33.2511 26.7241 32.1312 26.4989 31 26.5ZM27.072 31.15C27.5834 30.6267 28.1945 30.211 28.8691 29.9276C29.5437 29.6443 30.2683 29.4989 31 29.5C32.54 29.5 33.928 30.13 34.928 31.15C35.902 32.144 36.5 33.5 36.5 35C36.5 36.5 35.902 37.856 34.928 38.85C34.4166 39.3733 33.8056 39.789 33.1309 40.0724C32.4563 40.3557 31.7317 40.5012 31 40.5C30.2683 40.5012 29.5437 40.3557 28.8691 40.0724C28.1945 39.789 27.5834 39.3733 27.072 38.85C26.0625 37.8231 25.4978 36.44 25.5 35C25.5 33.5 26.098 32.144 27.072 31.15Z" fill="#45A92A"/>
</svg>
