<svg width="28" height="28" viewBox="0 0 28 28" fill="none" xmlns="http://www.w3.org/2000/svg">
<path fill-rule="evenodd" clip-rule="evenodd" d="M16.6592 2.51059C16.2275 2.33325 15.6792 2.33325 14.5837 2.33325C13.4882 2.33325 12.941 2.33325 12.5082 2.51059C12.2234 2.62695 11.9644 2.7985 11.7462 3.01534C11.5279 3.23218 11.3547 3.49004 11.2365 3.77409C11.1269 4.03425 11.0849 4.33875 11.0674 4.78092C11.059 5.10117 10.9694 5.41405 10.807 5.69017C10.6446 5.96628 10.4146 6.19658 10.1387 6.35942C9.85724 6.51587 9.54084 6.59875 9.21881 6.60039C8.89679 6.60202 8.57957 6.52235 8.29654 6.36875C7.9022 6.16109 7.61637 6.04675 7.33403 6.00942C6.71638 5.92883 6.09185 6.09481 5.5957 6.47142C5.2247 6.75375 4.95053 7.22509 4.40337 8.16659C3.85503 9.10809 3.58203 9.57825 3.5202 10.0391C3.43853 10.6528 3.60653 11.2734 3.98687 11.7646C4.15953 11.9886 4.40337 12.1764 4.7802 12.4121C5.3367 12.7586 5.6937 13.3489 5.6937 13.9999C5.6937 14.6509 5.3367 15.2413 4.78137 15.5866C4.40337 15.8234 4.15953 16.0113 3.9857 16.2353C3.79853 16.4782 3.66108 16.7556 3.5812 17.0517C3.50133 17.3477 3.4806 17.6567 3.5202 17.9608C3.58203 18.4204 3.85503 18.8918 4.40337 19.8333C4.9517 20.7748 5.2247 21.2449 5.5957 21.5284C6.09037 21.9053 6.7157 22.0709 7.33403 21.9904C7.61637 21.9531 7.9022 21.8388 8.29654 21.6311C8.57971 21.4773 8.89715 21.3975 9.2194 21.3991C9.54165 21.4008 9.85826 21.4838 10.1399 21.6404C10.7069 21.9671 11.0429 22.5679 11.0674 23.2189C11.0849 23.6623 11.1269 23.9656 11.2365 24.2258C11.4745 24.7974 11.9319 25.2524 12.5082 25.4893C12.9399 25.6666 13.4882 25.6666 14.5837 25.6666C15.6792 25.6666 16.2275 25.6666 16.6592 25.4893C16.944 25.3729 17.203 25.2013 17.4212 24.9845C17.6395 24.7677 17.8127 24.5098 17.9309 24.2258C18.0405 23.9656 18.0825 23.6623 18.1 23.2189C18.1234 22.5679 18.4605 21.9659 19.0287 21.6404C19.3102 21.484 19.6266 21.4011 19.9486 21.3995C20.2706 21.3978 20.5878 21.4775 20.8709 21.6311C21.2652 21.8388 21.551 21.9531 21.8334 21.9904C22.4517 22.0721 23.077 21.9053 23.5717 21.5284C23.9427 21.2461 24.2169 20.7748 24.764 19.8333C25.3124 18.8918 25.5854 18.4216 25.6472 17.9608C25.6866 17.6566 25.6657 17.3476 25.5856 17.0515C25.5056 16.7555 25.3679 16.4781 25.1805 16.2353C25.0079 16.0113 24.764 15.8234 24.3872 15.5878C23.8307 15.2413 23.4737 14.6509 23.4737 13.9999C23.4737 13.3489 23.8307 12.7586 24.386 12.4133C24.764 12.1764 25.0079 11.9886 25.1817 11.7646C25.3689 11.5217 25.5063 11.2442 25.5862 10.9482C25.6661 10.6521 25.6868 10.3432 25.6472 10.0391C25.5854 9.57942 25.3124 9.10809 24.764 8.16659C24.2157 7.22509 23.9427 6.75492 23.5717 6.47142C23.0756 6.09481 22.451 5.92883 21.8334 6.00942C21.551 6.04675 21.2652 6.16109 20.8709 6.36875C20.5877 6.52255 20.2702 6.60234 19.948 6.60071C19.6258 6.59908 19.3091 6.51608 19.0275 6.35942C18.7519 6.19644 18.5221 5.96608 18.3599 5.68997C18.1977 5.41386 18.1082 5.10106 18.1 4.78092C18.0825 4.33759 18.0405 4.03425 17.9309 3.77409C17.8127 3.49004 17.6395 3.23218 17.4212 3.01534C17.203 2.7985 16.944 2.62695 16.6592 2.51059ZM14.5837 17.4999C16.532 17.4999 18.1105 15.9331 18.1105 13.9999C18.1105 12.0668 16.5309 10.4999 14.5837 10.4999C12.6365 10.4999 11.0569 12.0668 11.0569 13.9999C11.0569 15.9331 12.6365 17.4999 14.5837 17.4999Z" fill="black"/>
</svg>
