<svg width="32" height="32" viewBox="0 0 32 32" fill="none" xmlns="http://www.w3.org/2000/svg">
<path d="M5.33301 29.3334C5.33301 26.5044 6.45681 23.7913 8.4572 21.7909C10.4576 19.7905 13.1707 18.6667 15.9997 18.6667C18.8287 18.6667 21.5418 19.7905 23.5421 21.7909C25.5425 23.7913 26.6663 26.5044 26.6663 29.3334H23.9997C23.9997 27.2116 23.1568 25.1768 21.6565 23.6765C20.1562 22.1762 18.1214 21.3334 15.9997 21.3334C13.8779 21.3334 11.8431 22.1762 10.3428 23.6765C8.84253 25.1768 7.99967 27.2116 7.99967 29.3334H5.33301ZM15.9997 17.3334C11.5797 17.3334 7.99967 13.7534 7.99967 9.33337C7.99967 4.91337 11.5797 1.33337 15.9997 1.33337C20.4197 1.33337 23.9997 4.91337 23.9997 9.33337C23.9997 13.7534 20.4197 17.3334 15.9997 17.3334ZM15.9997 14.6667C18.9463 14.6667 21.333 12.28 21.333 9.33337C21.333 6.38671 18.9463 4.00004 15.9997 4.00004C13.053 4.00004 10.6663 6.38671 10.6663 9.33337C10.6663 12.28 13.053 14.6667 15.9997 14.6667Z" fill="black"/>
</svg>
