<svg width="308" height="308" viewBox="0 0 308 308" fill="none" xmlns="http://www.w3.org/2000/svg">
<g filter="url(#filter0_d_386_12)">
<circle cx="154" cy="150" r="150" fill="#EAEAEA"/>
<circle cx="154" cy="150" r="149.75" stroke="black" stroke-width="0.5"/>
</g>
<path fill-rule="evenodd" clip-rule="evenodd" d="M154 0C71.1591 0 4 67.1591 4 150C4 232.841 71.1591 300 154 300C236.841 300 304 232.841 304 150C304 67.1591 236.841 0 154 0ZM31.2727 150C31.2727 178.5 40.9955 204.736 57.2909 225.573C68.7378 210.547 83.5021 198.37 100.431 189.992C117.361 181.613 135.997 177.26 154.886 177.273C173.532 177.251 191.937 181.488 208.697 189.66C225.457 197.832 240.13 209.723 251.595 224.427C263.411 208.931 271.366 190.844 274.803 171.663C278.24 152.481 277.06 132.757 271.361 114.123C265.662 95.4877 255.608 78.4779 242.029 64.5005C228.451 50.5231 211.74 39.9799 193.278 33.7433C174.816 27.5067 155.135 25.756 135.862 28.636C116.589 31.516 98.279 38.944 82.4469 50.3053C66.6147 61.6666 53.7156 76.6346 44.8168 93.9708C35.9179 111.307 31.2752 130.513 31.2727 150ZM154 272.727C125.826 272.773 98.502 263.08 76.6545 245.291C85.4474 232.699 97.1526 222.419 110.774 215.324C124.395 208.23 139.529 204.532 154.886 204.545C170.052 204.532 185.003 208.138 198.495 215.063C211.988 221.989 223.633 232.034 232.464 244.364C210.447 262.732 182.672 272.772 154 272.727Z" fill="black"/>
<path fill-rule="evenodd" clip-rule="evenodd" d="M208.546 109.09C208.546 123.556 202.799 137.43 192.57 147.659C182.341 157.888 168.467 163.635 154.001 163.635C139.534 163.635 125.66 157.888 115.431 147.659C105.202 137.43 99.4551 123.556 99.4551 109.09C99.4551 94.6233 105.202 80.7494 115.431 70.5202C125.66 60.2909 139.534 54.5442 154.001 54.5442C168.467 54.5442 182.341 60.2909 192.57 70.5202C202.799 80.7494 208.546 94.6233 208.546 109.09ZM181.273 109.09C181.273 116.323 178.4 123.26 173.285 128.374C168.171 133.489 161.234 136.362 154.001 136.362C146.767 136.362 139.83 133.489 134.716 128.374C129.601 123.26 126.728 116.323 126.728 109.09C126.728 101.856 129.601 94.9195 134.716 89.8049C139.83 84.6903 146.767 81.8169 154.001 81.8169C161.234 81.8169 168.171 84.6903 173.285 89.8049C178.4 94.9195 181.273 101.856 181.273 109.09Z" fill="black"/>
<defs>
<filter id="filter0_d_386_12" x="0" y="0" width="308" height="308" filterUnits="userSpaceOnUse" color-interpolation-filters="sRGB">
<feFlood flood-opacity="0" result="BackgroundImageFix"/>
<feColorMatrix in="SourceAlpha" type="matrix" values="0 0 0 0 0 0 0 0 0 0 0 0 0 0 0 0 0 0 127 0" result="hardAlpha"/>
<feOffset dy="4"/>
<feGaussianBlur stdDeviation="2"/>
<feComposite in2="hardAlpha" operator="out"/>
<feColorMatrix type="matrix" values="0 0 0 0 0 0 0 0 0 0 0 0 0 0 0 0 0 0 0.25 0"/>
<feBlend mode="normal" in2="BackgroundImageFix" result="effect1_dropShadow_386_12"/>
<feBlend mode="normal" in="SourceGraphic" in2="effect1_dropShadow_386_12" result="shape"/>
</filter>
</defs>
</svg>
